General.

Complete name                    : Tinker Tailor Soldier Spy[2011]ENG[BRrip]XviD-{RedDragon}
Format                           :  .AVI
Format/Info                      : Audio Video Interleave
File size                        : 753 MiB
Duration                         : 2h 2mn
Overall bit rate                 : 861 Kbps
Writing library                  : VirtualDubMod build 2178/release
IMDB LINK                         : http://www.imdb.com/title/tt1340800/
IMDB Rating                      : 7.3/10


Video.

ID                               : 0
Format                           : MPEG-4 Visual
Format profile                   : Advanced Simple@L5
Format settings, BVOP            : Yes
Format settings, QPel            : No
Format settings, GMC             : No warppoints
Format settings, Matrix          : Custom
Codec ID                         : XVID
Codec ID/Hint                    : XviD
Duration                         : 2h 2mn
Bit rate                         : 742 Kbps
Width                            : 720 pixels
Height                           : 304 pixels
Display aspect ratio             : 2.35:1
Frame rate                       : 25.000 fps
Color space                      : YUV
Chroma subsampling               : 4:2:0
Bit depth                        : 8 bits
Scan type                        : Progressive
Bits/(Pixel*Frame)               : 0.136
Stream size                      : 648 MiB (86%)
Writing library                  : XviD 


Audio.

ID                               : 1
Format                           : MPEG Audio
Format version                   : Version 1
Format profile                   : Layer 3
Mode                             : Joint stereo
Mode extension                   : MS Stereo
Codec ID                         : 55
Codec ID/Hint                    : MP3
Duration                         : 2h 2mn
Bit rate mode                    : Constant
Bit rate                         : 112 Kbps
Channel(s)                       : 2 channels
Sampling rate                    : 48.0 KHz
Stream size                      : 97.8 MiB (13%)
Alignment                        : Aligned on interleaves
Interleave, duration             : 80 ms (2.00 video frames)
Interleave, preload duration     : 504 ms
Writing library                  : LAME3.98r